# AST/ASF file generated using VICON BodyLanguage
# -----------------------------------------------
:version 1.10
:name VICON
:units
  mass 1.0
  length 0.45
  angle deg
:documentation
   .ast/.asf automatically generated from VICON data using
   VICON BodyBuilder and BodyLanguage model FoxedUp or BRILLIANT.MOD
:root
   order TX TY TZ RX RY RZ
   axis XYZ
   position 0 0 0  
   orientation 0 0 0 
:bonedata
  begin
     id 1 
     name lhipjoint
     direction 0.584852 -0.759097 0.285867 
     length 2.43633 
     axis 0 0 0  XYZ
  end
  begin
     id 2 
     name lfemur
     direction 0.34202 -0.939693 0  
     length 7.14704  
     axis 0 0 20  XYZ
    dof rx ry rz
    limits (-160.0 20.0)
           (-70.0 70.0)
           (-60.0 70.0)
  end
  begin
     id 3 
     name ltibia
     direction 0.342022 -0.939692 0   
     length 7.68483   
     axis 0 0 20   XYZ
    dof rx
    limits (-10.0 170.0)
  end
  begin
     id 4 
     name lfoot
     direction 0.0999605 -0.274639 0.956337   
     length 2.40452   
     axis -90 7.62852e-016 20   XYZ
    dof rx rz
    limits (-45.0 90.0)
           (-70.0 20.0)
  end
  begin
     id 5 
     name ltoes
     direction 1.53468e-011 -4.21881e-011 1   
     length 1.19837   
     axis -90 7.62852e-016 20   XYZ
    dof rx
    limits (-90.0 20.0)
  end
  begin
     id 6 
     name rhipjoint
     direction -0.569886 -0.769002 0.289597   
     length 2.40495  
     axis 0 0 0  XYZ 
  end
  begin
     id 7 
     name rfemur
     direction -0.34202 -0.939693 0   
     length 7.45086   
     axis 0 0 -20   XYZ
    dof rx ry rz
    limits (-160.0 20.0)
           (-70.0 70.0)
           (-70.0 60.0)
  end
  begin
     id 8 
     name rtibia
     direction -0.34202 -0.939693 0   
     length 7.76831   
     axis 0 0 -20   XYZ
    dof rx
    limits (-10.0 170.0)
 end
 begin
     id 9 
     name rfoot
     direction -0.0798572 -0.219406 0.97236   
     length 2.35911  
     axis -90 -7.62852e-016 -20   XYZ
    dof rx rz
    limits (-45.0 90.0)
           (-20.0 70.0)
  end
  begin
     id 10 
     name rtoes
     direction -1.53469e-011 -4.21728e-011 1   
     length 1.18261   
     axis -90 -7.62852e-016 -20   XYZ
    dof rx
    limits (-90.0 20.0)
  end
  begin
     id 11 
     name lowerback
     direction 0.0242088 0.999437 0.0232389   
     length 2.1561   
     axis 0 0 0   XYZ
    dof rx ry rz
    limits (-20.0 45.0)
           (-30.0 30.0)
           (-30.0 30.0)
  end
  begin
     id 12 
     name upperback
     direction -0.0356893 0.999013 -0.0264323   
     length 2.14431   
     axis 0 0 0   XYZ
    dof rx ry rz
    limits (-20.0 45.0)
           (-30.0 30.0)
           (-30.0 30.0)
  end
  begin
     id 13 
     name thorax
     direction -0.0472163 0.998194 -0.0371284   
     length 2.16169   
     axis 0 0 0   XYZ
    dof rx ry rz
    limits (-20.0 45.0)
           (-30.0 30.0)
           (-30.0 30.0)
  end
  begin
     id 14 
     name lowerneck
     direction 0.00863244 0.999921 0.00911972   
     length 1.58651   
     axis 0 0 0   XYZ
    dof rx ry rz
    limits (-20.0 45.0)
           (-30.0 30.0)
           (-30.0 30.0)
  end
  begin
     id 15 
     name upperneck
     direction 0.149523 0.979068 -0.138086   
     length 1.57486   
     axis 0 0 0   XYZ
    dof rx ry rz
    limits (-20.0 45.0)
           (-30.0 30.0)
           (-30.0 30.0)
  end
  begin
     id 16
     name head
     direction 0.0445219 0.997708 -0.0509576  
     length 1.6019  
     axis 0 0 0   XYZ
    dof rx ry rz
    limits (-20.0 45.0)
           (-30.0 30.0)
           (-30.0 30.0)
  end
  begin
     id 17 
     name lclavicle
     direction 0.911271 0.381667 -0.154644  
     length 3.80848  
     axis 0 0 0   XYZ
    dof ry rz
    limits (-20.0 10.0)
           (0.0 20.0)
  end
  begin
     id 18 
     name lhumerus
     direction 1 -4.49003e-011 2.1308e-027   
     length 5.19069   
     axis 180 -30 -90   XYZ
    dof rx ry rz
    limits (-60.0 90.0)
           (-90.0 90.0)
           (-90.0 90.0)
  end
  begin
     id 19
     name lradius
     direction 1 -4.48914e-011 4.01554e-027   
     length 3.30016   
     axis 180 -30 -90   XYZ
    dof rx
    limits (-10.0 170.0)
  end
  begin
     id 20
     name lwrist
     direction 1 -4.49003e-011 1.1934e-026   
     length 1.65008   
     axis -8.46377e-015 90 90   XYZ
    dof ry
    limits (-180.0 0.0)
 end
  begin
     id 21 
     name lhand
     direction 1 -4.49034e-011 2.38659e-026   
     length 0.707698   
     axis -1.52313e-014 90 90   XYZ
    dof rx rz
    limits (-90.0 90.0)
           (-45.0 45.0)
  end
  begin
     id 22 
     name lfingers
     direction 1 -4.48691e-011 4.77775e-026   
     length 0.570564   
     axis -3.04623e-014 90 90   XYZ
    dof rx
    limits (0.0 90.0)
  end
  begin
     id 23
     name lthumb
     direction 0.707107 -6.34832e-011 0.707107   
     length 0.819219   
     axis -90 45 -1.62303e-014   XYZ
    dof rx rz
    limits (-45.0 45.0)
           (-45.0 45.0)
  end
  begin
     id 24 
     name rclavicle
     direction -0.815579 0.573708 -0.0754329   
     length 3.54371  
     axis 0 0 0   XYZ 
    dof ry rz
    limits (-10.0 20.0)
           (-20.0 0.0)
  end
  begin
     id 25 
     name rhumerus
     direction -1 -4.48956e-011 3.05351e-028  
     length 5.23924   
     axis 180 30 90   XYZ
    dof rx ry rz
    limits (-90.0 60.0)
           (-90.0 90.0)
           (-90.0 90.0)
  end
  begin
     id 26 
     name rradius
     direction -1 -4.49013e-011 3.53849e-027   
     length 3.32953   
     axis 180 30 90   XYZ
    dof rx
    limits (-10.0 170.0)
  end
  begin
     id 27 
     name rwrist
     direction -1 -4.48901e-011 1.19374e-026   
     length 1.66477   
     axis -8.46377e-015 -90 -90   XYZ
    dof ry
    limits (-180.0 0.0)
  end
  begin
     id 28
     name rhand
     direction -1 -4.48877e-011 2.38764e-026   
     length 0.607414   
     axis -1.52313e-014 -90 -90   XYZ
    dof rx rz
    limits (-90.0 90.0)
           (-45.0 45.0)
  end
  begin
     id 29
     name rfingers
     direction -1 -4.48882e-011 4.77521e-026   
     length 0.489712   
     axis -3.04623e-014 -90 -90   XYZ
    dof rx
    limits (0.0 90.0)
  end
  begin
     id 30
     name rthumb
     direction -0.707107 -6.34974e-011 0.707107   
     length 0.703132   
     axis -90 -45 1.62303e-014   XYZ
    dof rx rz
    limits (-45.0 45.0)
           (-45.0 45.0)
  end
:hierarchy
  begin
    root lhipjoint rhipjoint lowerback
    lhipjoint lfemur
    lfemur ltibia
    ltibia lfoot
    lfoot ltoes
    rhipjoint rfemur
    rfemur rtibia
    rtibia rfoot
    rfoot rtoes
    lowerback upperback
    upperback thorax
    thorax lowerneck lclavicle rclavicle
    lowerneck upperneck
    upperneck head
    lclavicle lhumerus
    lhumerus lradius
    lradius lwrist
    lwrist lhand lthumb
    lhand lfingers
    rclavicle rhumerus
    rhumerus rradius
    rradius rwrist
    rwrist rhand rthumb
    rhand rfingers
  end

#!OML:ASF E:\VariousWalksJay\Project 1\Capture day 1\Session 1\Actor2.ASF
:FULLY-SPECIFIED
:DEGREES
407
root 14.5213 13.3782 -0.906074 2.04832 -42.2664 4.39452
lowerback 35.0594 -2.84924 0.832712
upperback 20.6671 -4.60262 -4.642
thorax 4.59159 -2.3621 -4.12735
lowerneck 4.76089 1.32498 3.00165
upperneck -21.708 2.40281 1.73559
head -7.42778 0.6568 -0.111629
rclavicle -1.06549e-013 -4.01545e-014
rhumerus -9.17221 33.155 -70.5278
rradius 112.644
rwrist -2.25088
rhand -33.882 -8.41813
rfingers 7.12502
rthumb -7.06569 -38.2802
lclavicle -1.06549e-013 -4.01545e-014
lhumerus 62.8354 -7.74104 30.7922
lradius 77.4205
lwrist 56.0325
lhand -31.2255 13.5384
lfingers 7.12502
lthumb -4.50089 43.4706
rfemur -69.716 4.66494 23.9928
rtibia 27.0329
rfoot -19.3227 -8.38933
rtoes -26.575
lfemur -50.3749 17.2593 -38.2604
ltibia 95.711
lfoot -35.1851 -0.0252027
ltoes -21.9042
408
root 14.4457 13.4155 -0.81485 2.2716 -42.0458 4.53257
lowerback 34.5246 -2.86345 0.819143
upperback 20.5468 -4.59784 -4.61463
thorax 4.64134 -2.3553 -4.1091
lowerneck 4.81326 1.32273 2.99753
upperneck -21.6272 2.40753 1.76386
head -7.41105 0.659781 -0.102483
rclavicle 3.97569e-015 7.95139e-016
rhumerus -10.9877 33.2662 -71.5406
rradius 112.298
rwrist -1.88418
rhand -34.1569 -7.55401
rfingers 7.12502
rthumb -7.33104 -37.407
lclavicle 3.97569e-015 7.95139e-016
lhumerus 62.3421 -8.79132 31.1131
lradius 78.1315
lwrist 55.5783
lhand -31.3088 13.3524
lfingers 7.12502
lthumb -4.58137 43.2829
rfemur -69.3226 4.52823 23.9601
rtibia 26.5864
rfoot -19.0952 -8.59002
rtoes -26.0164
lfemur -49.9382 17.5601 -38.2882
ltibia 95.3682
lfoot -35.1562 -0.518312
ltoes -21.9579
409
root 14.3694 13.4565 -0.721225 2.52747 -41.8136 4.6568
lowerback 33.9972 -2.88825 0.816124
upperback 20.4101 -4.60234 -4.57512
thorax 4.6733 -2.35296 -4.08003
lowerneck 4.86041 1.31986 2.98459
upperneck -21.5166 2.40848 1.78743
head -7.38358 0.663029 -0.0930218
rclavicle 7.95139e-015 1.47101e-014
rhumerus -12.8386 33.354 -72.5845
rradius 111.861
rwrist -1.42549
rhand -34.4984 -6.63368
rfingers 7.12502
rthumb -7.66067 -36.4749
lclavicle 7.95139e-015 1.47101e-014
lhumerus 61.8006 -9.89475 31.4739
lradius 78.8572
lwrist 55.0776
lhand -31.3955 13.137
lfingers 7.12502
lthumb -4.66504 43.0657
rfemur -68.9526 4.37924 23.9283
rtibia 26.1619
rfoot -18.8902 -8.78181
rtoes -25.457
lfemur -49.4836 17.8429 -38.304
ltibia 94.9661
lfoot -35.1219 -1.00922
ltoes -21.9599
410
root 14.2919 13.5012 -0.625071 2.81159 -41.5685 4.7745
lowerback 33.4705 -2.92175 0.817088
upperback 20.2607 -4.61584 -4.52383
thorax 4.69412 -2.35546 -4.03791
lowerneck 4.89203 1.31328 2.96822
upperneck -21.366 2.40111 1.80605
head -7.3402 0.664214 -0.0837738
rclavicle -4.92986e-014 -6.32135e-014
rhumerus -14.7079 33.4083 -73.6483
rradius 111.323
rwrist -0.887578
rhand -34.9066 -5.68045
rfingers 7.12502
rthumb -8.05461 -35.507
lclavicle -4.92986e-014 -6.32135e-014
lhumerus 61.2186 -11.0411 31.8618
lradius 79.5924
lwrist 54.5674
lhand -31.4964 12.8902
lfingers 7.12502
lthumb -4.76243 42.8167
rfemur -68.608 4.21149 23.9
rtibia 25.7632
rfoot -18.6995 -8.95152
rtoes -24.917
lfemur -49.0051 18.1079 -38.3138
ltibia 94.506
lfoot -35.0848 -1.49602
ltoes -21.9575
411
root 14.2131 13.5493 -0.526532 3.12978 -41.3142 4.87591
lowerback 32.9422 -2.95958 0.822515
upperback 20.1002 -4.63323 -4.45826
thorax 4.70704 -2.3604 -3.98205
lowerneck 4.90871 1.30208 2.95027
upperneck -21.177 2.38522 1.82356
head -7.28168 0.662635 -0.0737921
rclavicle 4.77083e-015 -2.94201e-014
rhumerus -16.5815 33.4175 -74.7253
rradius 110.675
rwrist -0.286848
rhand -35.3763 -4.7094
rfingers 7.12502
rthumb -8.50789 -34.518
lclavicle 4.77083e-015 -2.94201e-014
lhumerus 60.6024 -12.2308 32.2728
lradius 80.3303
lwrist 54.0642
lhand -31.6002 12.6194
lfingers 7.12502
lthumb -4.86267 42.5436
rfemur -68.2892 4.03318 23.8819
rtibia 25.3966
rfoot -18.5133 -9.10098
rtoes -24.3738
lfemur -48.5139 18.3602 -38.3078
ltibia 93.9934
lfoot -35.0345 -1.9902
ltoes -21.9193
412
root 14.1329 13.6007 -0.425653 3.48157 -41.0464 4.96121
lowerback 32.4082 -3.00578 0.834212
upperback 19.9312 -4.65924 -4.38063
thorax 4.71592 -2.36979 -3.91498
lowerneck 4.91347 1.28831 2.92714
upperneck -20.9583 2.36436 1.84401
head -7.21151 0.659651 -0.0614825
rclavicle -2.06736e-014 -4.37326e-015
rhumerus -18.4377 33.371 -75.8021
rradius 109.911
rwrist 0.353996
rhand -35.8737 -3.7335
rfingers 7.12502
rthumb -8.98795 -33.522
lclavicle -2.06736e-014 -4.37326e-015
lhumerus 59.9518 -13.4583 32.7031
lradius 81.0627
lwrist 53.5677
lhand -31.6945 12.3289
lfingers 7.12502
lthumb -4.95375 42.251
rfemur -67.9974 3.84646 23.8631
rtibia 25.069
rfoot -18.3199 -9.23219
rtoes -23.7693
lfemur -48.0102 18.5942 -38.2842
ltibia 93.4297
lfoot -34.974 -2.48194
ltoes -21.885
413
root 14.0513 13.6555 -0.322425 3.86678 -40.7659 5.02871
lowerback 31.8639 -3.05703 0.864514
upperback 19.7613 -4.6874 -4.2961
thorax 4.73015 -2.37877 -3.85115
lowerneck 4.90455 1.26809 2.91678
upperneck -20.7286 2.33558 1.86787
head -7.13549 0.651748 -0.0494963
rclavicle 3.97569e-014 -4.77083e-015
rhumerus -20.2586 33.2339 -76.876
rradius 109.03
rwrist 1.0139
rhand -36.3696 -2.76901
rfingers 7.12502
rthumb -9.46648 -32.5364
lclavicle 3.97569e-014 -4.77083e-015
lhumerus 59.2938 -14.7248 33.1358
lradius 81.781
lwrist 53.0665
lhand -31.7697 12.0189
lfingers 7.12502
lthumb -5.02634 41.9393
rfemur -67.7298 3.65709 23.8375
rtibia 24.7829
rfoot -18.1027 -9.35836
rtoes -23.0801
lfemur -47.4904 18.8071 -38.24
ltibia 92.815
lfoot -34.9 -2.98862
ltoes -21.8072
414
root 13.9682 13.7136 -0.216685 4.28058 -40.4743 5.07947
lowerback 31.3104 -3.11519 0.914505
upperback 19.595 -4.72054 -4.20966
thorax 4.75379 -2.38843 -3.79597
lowerneck 4.88424 1.24457 2.92567
upperneck -20.5058 2.30374 1.89126
head -7.05977 0.640604 -0.0405967
rclavicle 0 -1.64594e-013
rhumerus -22.0182 33 -77.9351
rradius 108.036
rwrist 1.67234
rhand -36.8419 -1.83046
rfingers 7.12502
rthumb -9.92211 -31.5766
lclavicle 0 -1.64594e-013
lhumerus 58.6295 -16.0222 33.5612
lradius 82.4786
lwrist 52.5415
lhand -31.8111 11.6958
lfingers 7.12502
lthumb -5.06631 41.6152
rfemur -67.4794 3.46791 23.8034
rtibia 24.5385
rfoot -17.8493 -9.49954
rtoes -22.3139
lfemur -46.9502 18.9966 -38.1725
ltibia 92.1481
lfoot -34.8125 -3.51146
ltoes -21.6945
415
root 13.8836 13.7748 -0.108191 4.7183 -40.1734 5.11325
lowerback 30.7526 -3.18433 0.98419
upperback 19.4303 -4.76412 -4.12191
thorax 4.78227 -2.40158 -3.74848
lowerneck 4.87381 1.22217 2.9399
upperneck -20.3121 2.27482 1.9138
head -6.99533 0.629582 -0.0332382
rclavicle -6.20208e-014 3.57812e-015
rhumerus -23.7061 32.6781 -78.9648
rradius 106.936
rwrist 2.32481
rhand -37.2788 -0.918926
rfingers 7.12502
rthumb -10.3436 -30.6445
lclavicle -6.20208e-014 3.57812e-015
lhumerus 57.9444 -17.3443 33.9812
lradius 83.1489
lwrist 51.9669
lhand -31.8104 11.3715
lfingers 7.12502
lthumb -5.06564 41.291
rfemur -67.2362 3.28508 23.7529
rtibia 24.3309
rfoot -17.5752 -9.66934
rtoes -21.4906
lfemur -46.3833 19.1624 -38.0813
ltibia 91.4268
lfoot -34.7179 -4.01667
ltoes -21.6128
416
root 13.7976 13.8391 0.0033307 5.17022 -39.8686 5.13613
lowerback 30.1955 -3.2611 1.07323
upperback 19.2691 -4.81478 -4.03654
thorax 4.81571 -2.41639 -3.7132
lowerneck 4.87788 1.19946 2.96361
upperneck -20.1597 2.24768 1.9348
head -6.9469 0.617497 -0.0282754
rclavicle 6.2816e-014 -8.11041e-014
rhumerus -25.3136 32.2598 -79.9549
rradius 105.74
rwrist 2.9773
rhand -37.6836 -0.0260076
rfingers 7.12502
rthumb -10.7341 -29.7318
lclavicle 6.2816e-014 -8.11041e-014
lhumerus 57.2422 -18.697 34.4004
lradius 83.7856
lwrist 51.3273
lhand -31.7626 11.0355
lfingers 7.12502
lthumb -5.01948 40.956
rfemur -66.9884 3.11335 23.6794
rtibia 24.1509
rfoot -17.297 -9.87294
rtoes -20.6533
lfemur -45.7822 19.3108 -37.9687
ltibia 90.649
lfoot -34.614 -4.53056
ltoes -21.5053
417
root 13.7102 13.9062 0.11801 5.62888 -39.5559 5.1522
lowerback 29.4085 -3.34627 1.19166
upperback 19.0373 -4.89721 -3.86541
thorax 5.15152 -2.43105 -3.81977
lowerneck 4.90676 1.17844 2.98095
upperneck -20.0558 2.2249 1.95939
head -6.91873 0.606149 -0.0216751
rclavicle -8.34896e-014 2.3059e-014
rhumerus -26.8341 31.7578 -80.8966
rradius 104.46
rwrist 3.64476
rhand -38.0684 0.84968
rfingers 7.12502
rthumb -11.1053 -28.8365
lclavicle -8.34896e-014 2.3059e-014
lhumerus 56.5096 -20.0772 34.827
lradius 84.3873
lwrist 50.6185
lhand -31.6785 10.6966
lfingers 7.12502
lthumb -4.93833 40.619
rfemur -66.7264 2.9559 23.5679
rtibia 23.9903
rfoot -17.0398 -10.1166
rtoes -19.8228
lfemur -45.138 19.4287 -37.8355
ltibia 89.8118
lfoot -34.4999 -5.04236
ltoes -21.3874
418
root 13.6211 13.9756 0.236061 6.09101 -39.2362 5.1617
lowerback 28.8849 -3.4472 1.31067
upperback 18.8709 -4.97489 -3.7844
thorax 5.1688 -2.45719 -3.79236
lowerneck 4.95692 1.15959 2.9892
upperneck -19.9841 2.20516 1.98102
head -6.90479 0.596173 -0.014939
rclavicle 2.70347e-014 6.48038e-014
rhumerus -28.2785 31.1886 -81.7773
rradius 103.114
rwrist 4.3399
rhand -38.4421 1.71236
rfingers 7.12502
rthumb -11.4657 -27.9541
lclavicle 2.70347e-014 6.48038e-014
lhumerus 55.7278 -21.495 35.2838
lradius 84.9516
lwrist 49.8526
lhand -31.5891 10.3476
lfingers 7.12502
lthumb -4.85198 40.272
rfemur -66.445 2.8175 23.4147
rtibia 23.8434
rfoot -16.8272 -10.3926
rtoes -19.0576
lfemur -44.447 19.5204 -37.6798
ltibia 88.9174
lfoot -34.3792 -5.55623
ltoes -21.2631
419
root 13.5304 14.0468 0.357785 6.55333 -38.9114 5.16459
lowerback 28.3731 -3.55842 1.44642
upperback 18.7014 -5.06406 -3.70459
thorax 5.17764 -2.48776 -3.77338
lowerneck 5.02609 1.14094 2.99034
upperneck -19.9316 2.18669 2.00538
head -6.90048 0.586459 -0.00638692
rclavicle 3.33958e-014 -1.90833e-014
rhumerus -29.6505 30.5505 -82.6
rradius 101.711
rwrist 5.08819
rhand -38.8035 2.58563
rfingers 7.12502
rthumb -11.8142 -27.0611
lclavicle 3.33958e-014 -1.90833e-014
lhumerus 54.8952 -22.9573 35.7746
lradius 85.4802
lwrist 49.0518
lhand -31.5128 9.97982
lfingers 7.12502
lthumb -4.77828 39.9059
rfemur -66.1392 2.69977 23.2207
rtibia 23.7085
rfoot -16.6796 -10.6735
rtoes -18.3993
lfemur -43.7071 19.5832 -37.5025
ltibia 87.9645
lfoot -34.2541 -6.05607
ltoes -21.1616
420
root 13.4381 14.1193 0.483204 7.01405 -38.5787 5.16652
lowerback 27.8675 -3.68018 1.59078
upperback 18.5289 -5.16685 -3.62394
thorax 5.18098 -2.52468 -3.75588
lowerneck 5.10001 1.1242 2.9816
upperneck -19.8771 2.17012 2.03107
head -6.89645 0.578332 0.00407178
rclavicle 8.0309e-014 -3.85642e-014
rhumerus -30.9466 29.8596 -83.3549
rradius 100.258
rwrist 5.89007
rhand -39.1688 3.49634
rfingers 7.12502
rthumb -12.1664 -26.1299
lclavicle 8.0309e-014 -3.85642e-014
lhumerus 54.0024 -24.4621 36.3152
lradius 85.9703
lwrist 48.2344
lhand -31.475 9.58013
lfingers 7.12502
lthumb -4.74179 39.5071
rfemur -65.8111 2.60312 22.9784
rtibia 23.5859
rfoot -16.5996 -10.9327
rtoes -17.8928
lfemur -42.9197 19.6085 -37.3075
ltibia 86.9569
lfoot -34.1266 -6.55178
ltoes -21.0572
421
root 13.3438 14.1928 0.612277 7.47687 -38.2409 5.16099
lowerback 27.3666 -3.81033 1.73961
upperback 18.3537 -5.2816 -3.53955
thorax 5.18056 -2.56774 -3.73498
lowerneck 5.16413 1.1123 2.96486
upperneck -19.8026 2.15779 2.05347
head -6.88418 0.573782 0.0145836
rclavicle -7.15625e-015 -7.95139e-015
rhumerus -32.1624 29.1354 -84.041
rradius 98.7619
rwrist 6.7337
rhand -39.5582 4.43365
rfingers 7.12502
rthumb -12.5418 -25.1699
lclavicle -7.15625e-015 -7.95139e-015
lhumerus 53.0411 -26.0024 36.9115
lradius 86.423
lwrist 47.4153
lhand -31.4936 9.14185
lfingers 7.12502
lthumb -4.75976 39.0684
rfemur -65.4617 2.52823 22.7037
rtibia 23.483
rfoot -16.5833 -11.1479
rtoes -17.5705
lfemur -42.0889 19.5982 -37.0895
ltibia 85.8962
lfoot -33.9969 -7.03159
ltoes -20.9796
